<svg width="46" height="46" viewBox="0 0 46 46" fill="none" xmlns="http://www.w3.org/2000/svg">
<path d="M23 46C35.7027 46 46 35.7027 46 23C46 10.2973 35.7027 0 23 0C10.2973 0 0 10.2973 0 23C0 35.7027 10.2973 46 23 46Z" fill="#D6001D"/>
<path fill-rule="evenodd" clip-rule="evenodd" d="M27.6742 19.7716V11.96H23.9371V32.2H27.6742V25.0677C27.6742 23.8707 27.7885 22.9665 28.0133 22.3541C28.241 21.7427 28.5975 21.2853 29.0849 20.9791C29.5693 20.6748 30.1255 20.5218 30.7446 20.5218C31.2862 20.5218 31.7387 20.6404 32.0952 20.8806C32.4491 21.1057 32.7146 21.4432 32.8481 21.8374C32.9905 22.2393 33.0612 23.1846 33.0612 24.6773V32.2H36.7992V23.8477C36.7992 22.5694 36.7353 21.6269 36.6064 21.0212C36.4835 20.4237 36.2385 19.8572 35.8865 19.3563C35.5377 18.8569 35.0184 18.4454 34.3266 18.1249C33.6329 17.8024 32.8548 17.6398 31.9954 17.6398C30.3221 17.6398 28.8795 18.3536 27.6742 19.7716ZM12.9401 19.7716V11.96H9.19922V32.2H12.9363L12.9401 25.0677C12.9363 23.8707 13.0506 22.9665 13.2792 22.3541C13.504 21.7427 13.8586 21.2853 14.3528 20.9791C14.8363 20.6749 15.3924 20.5218 16.0125 20.5218C16.5541 20.5218 17.0027 20.6404 17.3631 20.8806C17.7159 21.1064 17.9806 21.4438 18.114 21.8374C18.2565 22.2393 18.3243 23.1847 18.3243 24.6773V32.2H22.0662V23.8477C22.0662 22.5694 22.0022 21.6269 21.8743 21.0212C21.7455 20.4127 21.5071 19.8606 21.1544 19.3563C20.8037 18.8569 20.2844 18.4454 19.5897 18.1249C18.8969 17.8024 18.1247 17.6398 17.2624 17.6398C15.5881 17.6398 14.1445 18.3536 12.9401 19.7716Z" fill="white"/>
</svg>
