<svg width="40" height="40" viewBox="0 0 40 40" fill="none" xmlns="http://www.w3.org/2000/svg">
<path d="M8.30667 19.8509C10.3841 18.6573 12.7033 17.6607 14.8701 16.66C18.5976 15.0197 22.3403 13.4103 26.1206 11.9093C26.8567 11.6534 28.1777 11.4038 28.3077 12.5406C28.2366 14.15 27.9452 15.7491 27.7442 17.3481C27.2365 20.866 26.6486 24.3705 26.0759 27.8771C25.8789 29.0449 24.4756 29.6495 23.578 28.9015C21.4214 27.3819 19.2474 25.8778 17.1182 24.3231C16.4196 23.5834 17.0674 22.5218 17.6898 21.9946C19.4668 20.1686 21.3513 18.617 23.0348 16.6971C23.4897 15.553 22.1474 16.5176 21.7047 16.8127C19.2718 18.5603 16.8988 20.4152 14.335 21.9503C13.0252 22.7034 11.498 22.0607 10.1882 21.6408C9.01439 21.1343 7.29433 20.6236 8.30667 19.8509Z" fill="white"/>
</svg>
